<svg width="198" height="75" viewBox="0 0 198 75" fill="none" xmlns="http://www.w3.org/2000/svg">
<path d="M6.8 25.13L0.71 18.5L6.8 11.87H13.25L7.13 18.5L13.25 25.13H6.8ZM28.8134 0.499999L20.7734 34.61H15.8234L23.8634 0.499999H28.8134ZM36.1072 25.04H42.8272V29H30.9772V7.94H36.1072V25.04ZM50.3141 7.94V20.54C50.3141 21.8 50.6241 22.77 51.2441 23.45C51.8641 24.13 52.7741 24.47 53.9741 24.47C55.1741 24.47 56.0941 24.13 56.7341 23.45C57.3741 22.77 57.6941 21.8 57.6941 20.54V7.94H62.8241V20.51C62.8241 22.39 62.4241 23.98 61.6241 25.28C60.8241 26.58 59.7441 27.56 58.3841 28.22C57.0441 28.88 55.5441 29.21 53.8841 29.21C52.2241 29.21 50.7341 28.89 49.4141 28.25C48.1141 27.59 47.0841 26.61 46.3241 25.31C45.5641 23.99 45.1841 22.39 45.1841 20.51V7.94H50.3141ZM65.5564 18.44C65.5564 16.36 66.0064 14.51 66.9064 12.89C67.8064 11.25 69.0564 9.98 70.6564 9.08C72.2764 8.16 74.1064 7.7 76.1464 7.7C78.6464 7.7 80.7864 8.36 82.5664 9.68C84.3464 11 85.5364 12.8 86.1364 15.08H80.4964C80.0764 14.2 79.4764 13.53 78.6964 13.07C77.9364 12.61 77.0664 12.38 76.0864 12.38C74.5064 12.38 73.2264 12.93 72.2464 14.03C71.2664 15.13 70.7764 16.6 70.7764 18.44C70.7764 20.28 71.2664 21.75 72.2464 22.85C73.2264 23.95 74.5064 24.5 76.0864 24.5C77.0664 24.5 77.9364 24.27 78.6964 23.81C79.4764 23.35 80.0764 22.68 80.4964 21.8H86.1364C85.5364 24.08 84.3464 25.88 82.5664 27.2C80.7864 28.5 78.6464 29.15 76.1464 29.15C74.1064 29.15 72.2764 28.7 70.6564 27.8C69.0564 26.88 67.8064 25.61 66.9064 23.99C66.0064 22.37 65.5564 20.52 65.5564 18.44ZM102.388 25.28H94.528L93.268 29H87.898L95.518 7.94H101.458L109.078 29H103.648L102.388 25.28ZM101.068 21.32L98.458 13.61L95.878 21.32H101.068ZM119.017 29.21C117.477 29.21 116.097 28.96 114.877 28.46C113.657 27.96 112.677 27.22 111.937 26.24C111.217 25.26 110.837 24.08 110.797 22.7H116.257C116.337 23.48 116.607 24.08 117.067 24.5C117.527 24.9 118.127 25.1 118.867 25.1C119.627 25.1 120.227 24.93 120.667 24.59C121.107 24.23 121.327 23.74 121.327 23.12C121.327 22.6 121.147 22.17 120.787 21.83C120.447 21.49 120.017 21.21 119.497 20.99C118.997 20.77 118.277 20.52 117.337 20.24C115.977 19.82 114.867 19.4 114.007 18.98C113.147 18.56 112.407 17.94 111.787 17.12C111.167 16.3 110.857 15.23 110.857 13.91C110.857 11.95 111.567 10.42 112.987 9.32C114.407 8.2 116.257 7.64 118.537 7.64C120.857 7.64 122.727 8.2 124.147 9.32C125.567 10.42 126.327 11.96 126.427 13.94H120.877C120.837 13.26 120.587 12.73 120.127 12.35C119.667 11.95 119.077 11.75 118.357 11.75C117.737 11.75 117.237 11.92 116.857 12.26C116.477 12.58 116.287 13.05 116.287 13.67C116.287 14.35 116.607 14.88 117.247 15.26C117.887 15.64 118.887 16.05 120.247 16.49C121.607 16.95 122.707 17.39 123.547 17.81C124.407 18.23 125.147 18.84 125.767 19.64C126.387 20.44 126.697 21.47 126.697 22.73C126.697 23.93 126.387 25.02 125.767 26C125.167 26.98 124.287 27.76 123.127 28.34C121.967 28.92 120.597 29.21 119.017 29.21ZM19.7 74H14.57L5.99 61.01V74H0.86V52.94H5.99L14.57 65.99V52.94H19.7V74ZM28.4586 52.94V65.54C28.4586 66.8 28.7686 67.77 29.3886 68.45C30.0086 69.13 30.9186 69.47 32.1186 69.47C33.3186 69.47 34.2386 69.13 34.8786 68.45C35.5186 67.77 35.8386 66.8 35.8386 65.54V52.94H40.9686V65.51C40.9686 67.39 40.5686 68.98 39.7686 70.28C38.9686 71.58 37.8886 72.56 36.5286 73.22C35.1886 73.88 33.6886 74.21 32.0286 74.21C30.3686 74.21 28.8786 73.89 27.5586 73.25C26.2586 72.59 25.2286 71.61 24.4686 70.31C23.7086 68.99 23.3286 67.39 23.3286 65.51V52.94H28.4586ZM68.4209 52.94V74H63.2909V61.37L58.5809 74H54.4409L49.7009 61.34V74H44.5709V52.94H50.6309L56.5409 67.52L62.3909 52.94H68.4209ZM77.24 57.05V61.31H84.11V65.27H77.24V69.89H85.01V74H72.11V52.94H85.01V57.05H77.24ZM99.0805 74L94.7005 66.05H93.4705V74H88.3405V52.94H96.9505C98.6105 52.94 100.02 53.23 101.18 53.81C102.36 54.39 103.24 55.19 103.82 56.21C104.4 57.21 104.69 58.33 104.69 59.57C104.69 60.97 104.29 62.22 103.49 63.32C102.71 64.42 101.55 65.2 100.01 65.66L104.87 74H99.0805ZM93.4705 62.42H96.6505C97.5905 62.42 98.2905 62.19 98.7505 61.73C99.2305 61.27 99.4705 60.62 99.4705 59.78C99.4705 58.98 99.2305 58.35 98.7505 57.89C98.2905 57.43 97.5905 57.2 96.6505 57.2H93.4705V62.42ZM113.041 52.94V74H107.911V52.94H113.041ZM129.868 70.28H122.008L120.748 74H115.378L122.998 52.94H128.938L136.558 74H131.128L129.868 70.28ZM128.548 66.32L125.938 58.61L123.358 66.32H128.548ZM157.718 74H152.588L144.008 61.01V74H138.878V52.94H144.008L152.588 65.99V52.94H157.718V74ZM171.396 74.21C169.416 74.21 167.596 73.75 165.936 72.83C164.296 71.91 162.986 70.63 162.006 68.99C161.046 67.33 160.566 65.47 160.566 63.41C160.566 61.35 161.046 59.5 162.006 57.86C162.986 56.22 164.296 54.94 165.936 54.02C167.596 53.1 169.416 52.64 171.396 52.64C173.376 52.64 175.186 53.1 176.826 54.02C178.486 54.94 179.786 56.22 180.726 57.86C181.686 59.5 182.166 61.35 182.166 63.41C182.166 65.47 181.686 67.33 180.726 68.99C179.766 70.63 178.466 71.91 176.826 72.83C175.186 73.75 173.376 74.21 171.396 74.21ZM171.396 69.53C173.076 69.53 174.416 68.97 175.416 67.85C176.436 66.73 176.946 65.25 176.946 63.41C176.946 61.55 176.436 60.07 175.416 58.97C174.416 57.85 173.076 57.29 171.396 57.29C169.696 57.29 168.336 57.84 167.316 58.94C166.316 60.04 165.816 61.53 165.816 63.41C165.816 65.27 166.316 66.76 167.316 67.88C168.336 68.98 169.696 69.53 171.396 69.53ZM185.05 56.87H191.5L197.59 63.5L191.5 70.13H185.05L191.17 63.5L185.05 56.87Z" fill="white"/>
</svg>
